<?xml version="1.0" encoding="UTF-8" standalone="no"?>
<!-- Created with Inkscape (http://www.inkscape.org/) -->

<svg
   xmlns:dc="http://purl.org/dc/elements/1.1/"
   xmlns:cc="http://creativecommons.org/ns#"
   xmlns:rdf="http://www.w3.org/1999/02/22-rdf-syntax-ns#"
   xmlns:svg="http://www.w3.org/2000/svg"
   xmlns="http://www.w3.org/2000/svg"
   xmlns:sodipodi="http://sodipodi.sourceforge.net/DTD/sodipodi-0.dtd"
   xmlns:inkscape="http://www.inkscape.org/namespaces/inkscape"
   version="1.1"
   inkscape:export-ydpi="90"
   inkscape:export-xdpi="90"
   inkscape:export-filename="C:\Users\Annel\CHRISTMAS CANDLE.png"
   inkscape:output_extension="org.inkscape.output.svg.inkscape"
   sodipodi:docname="natal.svg"
   inkscape:version="0.48.1 r9760"
   sodipodi:version="0.32"
   id="svg2"
   height="744.09448"
   width="1052.3622">
  <sodipodi:namedview
     id="base"
     pagecolor="#ffffff"
     bordercolor="#666666"
     borderopacity="1.0"
     gridtolerance="10000"
     guidetolerance="10"
     objecttolerance="10"
     inkscape:pageopacity="0.0"
     inkscape:pageshadow="2"
     inkscape:zoom="0.43901235"
     inkscape:cx="220.27915"
     inkscape:cy="543.60196"
     inkscape:document-units="px"
     inkscape:current-layer="svg2"
     showgrid="false"
     inkscape:window-width="1366"
     inkscape:window-height="710"
     inkscape:window-x="0"
     inkscape:window-y="26"
     inkscape:window-maximized="1" />
  <defs
     id="defs4">
    <inkscape:perspective
       sodipodi:type="inkscape:persp3d"
       inkscape:vp_x="0 : 526.18109 : 1"
       inkscape:vp_y="0 : 1000 : 0"
       inkscape:vp_z="744.09448 : 526.18109 : 1"
       inkscape:persp3d-origin="372.04724 : 350.78739 : 1"
       id="perspective10" />
    <inkscape:perspective
       id="perspective2932"
       inkscape:persp3d-origin="372.04724 : 350.78739 : 1"
       inkscape:vp_z="744.09448 : 526.18109 : 1"
       inkscape:vp_y="0 : 1000 : 0"
       inkscape:vp_x="0 : 526.18109 : 1"
       sodipodi:type="inkscape:persp3d" />
    <inkscape:perspective
       id="perspective2945"
       inkscape:persp3d-origin="372.04724 : 350.78739 : 1"
       inkscape:vp_z="744.09448 : 526.18109 : 1"
       inkscape:vp_y="0 : 1000 : 0"
       inkscape:vp_x="0 : 526.18109 : 1"
       sodipodi:type="inkscape:persp3d" />
    <inkscape:perspective
       id="perspective3012"
       inkscape:persp3d-origin="372.04724 : 350.78739 : 1"
       inkscape:vp_z="744.09448 : 526.18109 : 1"
       inkscape:vp_y="0 : 1000 : 0"
       inkscape:vp_x="0 : 526.18109 : 1"
       sodipodi:type="inkscape:persp3d" />
  </defs>
  <metadata
     id="metadata7">
    <rdf:RDF>
      <cc:Work
         rdf:about="">
        <dc:format>image/svg+xml</dc:format>
        <dc:type
           rdf:resource="http://purl.org/dc/dcmitype/StillImage" />
        <dc:title />
      </cc:Work>
    </rdf:RDF>
  </metadata>
  <g
     inkscape:label="Layer 1"
     inkscape:groupmode="layer"
     id="layer1"
     transform="translate(0,-308.2677)">
    <g
       id="g2996"
       transform="matrix(0.53288629,0,0,0.53288629,296.69919,585.28302)">
      <path
         id="path3050"
         d="m -131.99318,680.1377 c 16.51444,-1.31055 34.658877,-3.4544 40.320979,-4.76411 5.662102,-1.30972 13.769181,-2.8796 18.01575,-3.48867 4.24657,-0.60906 8.879208,-1.67057 10.294731,-2.35892 1.415523,-0.68835 4.503942,-1.62611 6.863138,-2.08397 8.691692,-1.68671 25.464504,-9.70702 32.78621,-15.67749 10.42923,-8.50444 27.7741594,-30.58992 33.1289588,-42.18344 7.4924072,-16.2216 9.3735522,-46.15885 8.7181622,-138.74566 -0.309357,-43.70357 0.0475,-86.11395 0.793032,-94.24528 1.314386,-14.33576 0.417386,-51.91777 -3.28436,-137.60688 C 14.66063,216.23347 13.492852,161.8625 13.048371,118.15891 11.988442,13.945716 9.5944928,-34.442238 4.4938571,-54.750102 c -2.127791,-8.471571 -4.85425392,-20.056196 -6.0588592,-25.743655 -1.2045862,-5.687454 -2.8619373,-10.340821 -3.6829634,-10.340821 -0.821045,0 -1.4928221,-1.317665 -1.4928221,-2.928111 0,-1.61048 -1.5244801,-4.67865 -3.3877604,-6.818171 -1.863289,-2.13953 -3.893208,-5.96507 -4.511004,-8.50122 -1.836289,-7.53832 -18.107884,-30.81345 -26.416963,-37.78715 -13.218062,-11.09379 -29.660472,-21.45192 -38.605183,-24.31988 -4.71841,-1.51287 -11.281308,-4.04759 -14.584176,-5.63272 -14.151146,-6.79142 -48.998956,-9.44465 -68.371886,-5.2057 -4.38934,0.96043 -18.01797,2.22931 -30.28584,2.81972 -12.26787,0.59042 -24.62154,1.52495 -27.45258,2.07671 -12.17141,2.37221 -66.35194,7.88187 -78.92617,8.02607 -7.54947,0.0866 -17.20076,1.0016 -21.44733,2.03338 -4.24658,1.0318 -13.7145,3.31274 -21.03982,5.06879 -7.32535,1.75607 -14.27429,4.15459 -15.44209,5.33012 -1.16782,1.1755 -5.2117,3.37672 -8.98643,4.89162 -8.11205,3.25555 -21.44733,12.71953 -21.44733,15.22104 0,0.96531 -2.67417,3.75705 -5.94261,6.20386 -3.26842,2.44682 -7.00935,7.68676 -8.31315,11.64436 -1.3038,3.9576 -3.69921,8.59377 -5.32313,10.3026 -8.9067,9.372381 -17.87513,49.678023 -18.20062,81.796645 -0.65725,64.856736 0.20686,136.000285 1.94327,159.993745 1.28511,17.75723 2.08579,98.41735 2.30169,231.86906 0.32756,202.48329 0.37061,204.84232 4.08578,223.88894 3.00843,15.42345 5.25066,21.6977 11.28108,31.56673 4.13947,6.77449 9.23788,13.78675 11.32978,15.58279 2.09194,1.79603 5.45137,4.82132 7.46543,6.72286 2.01407,1.90153 8.68062,6.74033 14.81455,10.75287 6.13394,4.01254 12.31077,8.48995 13.7263,9.94982 8.42692,8.69081 42.29342,16.9084 78.06828,18.94299 23.52972,1.33819 120.56088,-0.30901 148.41552,-2.51949 z"
         style="fill:#ff0000"
         inkscape:connector-curvature="0" />
      <path
         id="path3046"
         d="m -225.36141,704.40388 c 54.62296,-1.11081 67.40004,-1.95948 81.463,-5.41086 5.26993,-1.29335 22.51698,-3.85185 38.32677,-5.68552 15.969934,-1.85227 33.665714,-5.24478 39.816884,-7.63341 6.08948,-2.3647 14.41489,-4.29946 18.50089,-4.29946 4.08601,0 12.213,-1.93484 18.05999,-4.29967 5.84697,-2.36481 13.39668,-4.95657 16.77714,-5.75948 3.3804602,-0.80289 6.1462702,-2.14248 6.1462702,-2.97686 0,-0.83439 2.74413,-2.77336 6.09805001,-4.30881 3.35392999,-1.53543 8.25364999,-5.03975 10.88828979,-7.78732 2.63463,-2.74756 6.19756,-5.64681 7.91761,-6.44277 1.72007,-0.79594 4.35603,-5.18309 5.85771,-9.7492 1.50168,-4.56612 3.26797,-8.7983 3.92506,-9.40484 3.18266,-2.93776 8.91197,-15.72137 11.89844,-26.54847 3.01158,-10.91817 3.09923,-13.1617 0.93343,-23.8923 -3.21324,-15.92027 -5.17155,-17.93304 -17.44768,-17.93304 -10.17045,0 -22.0507898,4.71819 -37.91047,15.05589 -8.32071,5.42361 -29.45714,12.72006 -42.44049,14.65076 -5.13704,0.76389 -13.76056,2.80465 -19.16338,4.53502 -34.729404,11.12274 -120.142054,17.89237 -221.491584,17.55497 -64.2958,-0.21403 -84.09017,-2.35067 -101.0433,-10.90679 -17.85917,-9.01339 -22.60398,-9.31158 -33.09833,-2.08028 -14.3635,9.89742 -19.28784,21.37147 -19.43413,45.28287 -0.099,16.17422 5.39392,25.27294 21.40348,35.45398 13.8542,8.81039 33.64682,15.82664 43.12427,15.28704 3.2438,-0.18468 6.77161,0.56602 7.83956,1.66825 1.06794,1.10221 23.46888,2.61052 49.77984,3.3518 26.32673,0.7417 48.5827,2.29043 49.49393,3.4441 0.91072,1.153 2.30592,1.58768 3.10045,0.96599 0.79455,-0.6217 23.59979,-1.58091 50.6783,-2.13159 z"
         style="fill:#000080"
         inkscape:connector-curvature="0" />
      <path
         id="path3042"
         d="m -217.96772,-205.34018 c 5.3131,-10.1094 10.8626,-22.02416 12.3322,-26.47721 1.4696,-4.45308 5.5365,-13.76559 9.0374,-20.69448 3.501,-6.92889 7.5584,-18.58656 9.0166,-25.90593 6.577,-33.01337 0.9851,-77.0109 -12.5568,-98.79846 -11.8838,-19.11972 -26.2285,-38.46869 -40.8819,-55.14368 -4.0105,-4.56377 -7.32,-9.03013 -7.3545,-9.92523 -0.0344,-0.89512 -2.0151,-4.60504 -4.4016,-8.24429 l -4.3389,-6.61682 4.4016,12.74512 c 5.3111,15.37875 5.5509,24.75207 0.8588,33.57262 -1.9359,3.63925 -7.9305,18.03084 -13.3214,31.9813 l -9.8017,25.36448 0.1576,25.36448 c 0.0925,14.86792 1.2279,30.38457 2.7439,37.49531 2.3551,11.04725 11.4897,39.32176 17.2257,53.31929 4.3432,10.59886 24.8295,50.14861 26.027,50.2465 0.6577,0.0537 5.543,-8.17361 10.856,-18.283 z"
         style="fill:#ffff00"
         inkscape:connector-curvature="0" />
      <path
         id="path3038"
         d="m -219.87315,-125.53 c 1.30028,0 1.50827,-9.57829 0.68255,-31.4299 -1.14046,-30.1808 -1.57371,-40.8032 -3.75571,-92.08408 -0.54197,-12.73738 -2.18069,-28.36962 -3.64158,-34.73831 -2.30759,-10.05979 -3.23879,-11.57944 -7.09566,-11.57944 l -4.4395,0 0.95004,20.40187 c 0.52251,11.22102 1.72956,30.32709 2.68235,42.45793 0.95278,12.13083 2.2614,32.47727 2.90806,45.21427 0.64664,12.73703 1.44934,23.7187 1.78375,24.40374 0.33441,0.68504 0.71333,6.14423 0.84202,12.1315 0.43001,20.0051 1.80242,27.85126 4.63119,26.47696 1.42027,-0.69 3.42389,-1.25454 4.45249,-1.25454 z"
         style="fill:#a02c2c"
         inkscape:connector-curvature="0" />
      <path
         id="path3034"
         d="m 8.4376398,358.30132 c 3.0894002,-1.11754 5.1107002,-4.75611 7.6947002,-13.8513 3.1956,-11.24786 3.4715,-17.10188 3.129,-66.38666 -0.2067,-29.72808 -0.1508,-92.56241 0.1241,-139.63187 0.9434,-161.523647 0.8848,-162.583317 -11.7258002,-211.825957 -9.3566,-36.536393 -26.2945998,-63.969133 -53.7586998,-87.067093 -8.38579,-7.05265 -25.9465,-14.39749 -40.2438,-16.83206 -3.8327,-0.65265 -8.1689,-2.55344 -9.6361,-4.22398 -2.3832,-2.71359 -13.0308,-5.49184 -33.9171,-8.84982 -7.5642,-1.21615 -65.8636,-1.29954 -75.7824,-0.10842 -3.3536,0.40273 -22.1686,1.43584 -41.811,2.29581 -43.8073,1.91794 -103.49111,11.17759 -108.83691,16.88551 -0.98348,1.05007 -5.31594,3.70637 -9.6277,5.90285 -12.21768,6.22388 -34.56376,27.45626 -39.46946,37.50237 -8.4886,17.38331 -14.41688,39.844857 -19.46855,73.763933 -3.53539,23.73799 -5.27385,119.79136 -2.77178,153.14464 1.47492,19.660997 4.41556,25.556677 11.73806,23.533727 3.05114,-0.84292 6.63458,-2.66803 7.96321,-4.05579 2.96691,-3.09896 9.00341,-20.748547 9.81851,-28.707497 0.3296,-3.21826 1.79692,-11.83265 3.26074,-19.14309 1.46382,-7.31043 3.01489,-16.83881 3.44681,-21.17415 2.18634,-21.94483 12.37215,-66.40209 17.47353,-76.26537 5.79946,-11.21296 19.53982,-22.71128 27.17234,-22.73855 5.5602,-0.01987 17.4019,8.68258 19.7976,14.54917 1.0116,2.47733 3.2427,7.25022 4.9579,10.6064 1.7152,3.3562 3.1751,7.41002 3.2443,9.00852 0.0692,1.59848 2.8553,5.8409599 6.1915,9.4277199 l 6.0657,6.52137 8.9434,-5.39531 c 5.4687,-3.29905 13.8676,-11.8590999 21.6171,-22.0316399 12.1574,-15.95877 12.9357,-16.58135 19.1084,-15.2864 12.8504,2.69583 22.1503,20.58604 24.0829,46.3285899 0.5948,7.9232301 1.6076,15.5063501 2.2506,16.8513601 1.4262,2.98315 1.63,5.35189 3.0267,35.18053 1.7425,37.21276 3.9916,51.626577 9.9274,63.622577 4.8848,9.87187 5.8375,10.69759 12.3421,10.69759 6.1169,0 8.04799,-1.36771 14.6095,-10.34768 6.8234,-9.3384 19.7896,-40.022687 19.7896,-46.831837 0,-1.49988 0.7079,-3.68982 1.5731,-4.86656 2.1439,-2.91592 9.3879,-37.14111 8.1892,-38.69078 -0.5279,-0.68248 0.1258,-3.88567 1.4528,-7.1182 2.8121,-6.85061 5.0425,-15.2254201 7.9877,-29.9934201 2.4716,-12.3930299 11.8866,-27.6681299 18.3452,-29.7636599 4.8841,-1.58469 11.8666,2.98124 20.37,13.32011 3.562,4.33078 6.7396,5.86642 12.4453,6.01448 4.21419,0.10934 8.4389,-0.42185 9.3884,-1.18043 4.0171,-3.2095 24.8093,-5.45026 31.7816,-3.42505 6.8544,1.99089 17.384,12.4735899 17.384,17.3064199 0,1.1823 1.1733,3.40842 2.6073,4.94692 3.7798,4.05532 12.4961,27.0870601 15.5071,40.9757401 5.1714,23.85375 5.3112,43.99783 0.5155,74.267187 -2.4202,15.2754 -5.6969,37.40132 -7.2817,49.16868 -1.5847,11.76736 -3.6164,26.46249 -4.5149,32.65584 -1.7215,11.86665 -2.4713,69.56412 -0.9455,72.75573 0.4907,1.02625 1.6992,9.90575 2.6857,19.73221 1.8491,18.41953 8.5244,42.8825 14.4007,52.77425 5.077,8.54621 15.5308998,18.0445 19.5826998,17.79252 1.9852,-0.12346 5.4949,-0.90654 7.7994,-1.74018 z"
         style="fill:#ffaaaa"
         inkscape:connector-curvature="0" />
      <path
         id="path3032"
         d="m -417.87117,605.5582 c 0.3864,-3.27489 -6.04868,-22.82372 -7.86668,-23.89785 -0.43573,-0.25745 -3.30955,-4.97214 -6.38629,-10.47691 -3.07678,-5.50491 -7.40178,-13.22719 -9.61116,-17.16056 -3.18634,-5.67255 -8.13228,-9.69702 -23.91416,-19.45874 -21.68759,-13.41463 -22.5124,-13.58522 -47.97965,-9.92202 -14.12036,2.03098 -16.65099,-0.0527 -15.74677,-12.96598 0.41146,-5.87649 1.27253,-11.57212 1.91341,-12.65684 1.50956,-2.55498 -0.37659,-17.23126 -6.1286,-47.68892 -2.54584,-13.48061 -5.05756,-27.71636 -5.58165,-31.6349 -0.52405,-3.91863 -1.59349,-8.35219 -2.37659,-9.85232 -5.39723,-10.33996 -8.09607,-18.83278 -6.723,-21.15676 1.92902,-3.26492 14.62902,-3.98433 19.51144,-1.10522 1.9147,1.12906 7.74825,1.27331 12.96327,0.32063 5.21508,-0.95279 11.50088,-1.41477 13.96841,-1.02685 2.46757,0.38794 5.68636,0.3342 7.15276,-0.11956 2.38521,-0.73791 11.5203,-2.25422 21.38744,-3.55009 8.07582,-1.06045 36.31846,-11.78861 42.68265,-16.21318 10.07618,-7.00532 21.75875,-13.6008 22.89831,-12.92751 0.68679,0.40577 1.45837,3.14306 1.71467,6.0829 0.25617,2.93988 3.14857,9.45671 6.42751,14.48184 5.40053,8.27688 8.43011,10.55468 32.1942,24.20623 l 26.23277,15.06969 12.74898,-1.56252 c 7.01196,-0.85947 19.00475,-4.44064 26.65064,-7.95834 l 13.90166,-6.39583 2.01114,12.9964 c 2.25116,14.5472 2.6418,15.28534 15.6518,29.57877 6.33256,6.9573 12.33715,11.5616 18.79975,14.41563 11.26167,4.97327 32.64334,7.85251 44.33269,5.96975 l 8.35322,-1.34536 -0.32507,15.83058 c -0.86484,42.11732 0.25171,49.2519 11.04549,70.58209 11.23657,22.20519 23.65514,44.07804 25.71765,45.29662 2.66535,1.57477 2.84502,8.50648 0.26474,10.20816 -1.13967,0.75157 -8.21809,1.42588 -15.7298,1.49854 -17.60341,0.17018 -46.8349,5.60631 -58.08084,10.80126 -4.83913,2.23535 -10.62815,4.79118 -12.86456,5.67947 -10.11522,4.01798 -28.75517,15.34928 -45.55909,27.69566 -10.56597,7.76314 -12.90053,7.16503 -23.514,-6.02477 -10.12496,-12.58269 -35.60992,-27.00114 -54.71718,-30.95704 -14.42576,-2.98665 -29.89494,-3.1355 -38.53554,-0.37053 -5.07914,1.62523 -7.41012,0.17415 -6.88397,-4.28562 z"
         style="fill:#00ff00"
         inkscape:connector-curvature="0" />
      <path
         id="path3030"
         d="m -15.103885,582.12914 c 4.989684,-10.67755 10.1009044,-17.07205 22.6029694,-28.278 10.0647926,-9.02139 36.7116636,-23.31043 46.3232546,-24.84023 3.482161,-0.55425 9.454303,-1.95089 13.271497,-3.10374 6.01204,-1.81568 6.87562,-2.80391 6.45719,-7.38893 -2.77455,-30.39695 2.07077,-74.97778 10.05234,-92.48933 2.23558,-4.90488 5.20906,-12.67368 6.60785,-17.26407 1.39879,-4.59039 3.49598,-8.83233 4.66044,-9.42653 1.16454,-0.59425 2.94608,-3.61833 3.95898,-6.72019 l 1.841624,-5.63975 -7.635334,-1.3085 c -4.19938,-0.7197 -8.03509,-1.10451 -8.52375,-0.85516 -1.75546,0.89578 -42.577134,-3.53223 -46.360904,-5.02881 -2.12771,-0.84159 -4.321189,-1.29922 -4.874512,-1.01687 -2.150321,1.09727 -36.9469516,-16.08423 -38.4197826,-18.97054 -0.306464,-0.60058 -4.495544,-3.31254 -9.3089964,-6.02659 l -8.751775,-4.9346 -4.399235,8.86717 c -2.419587,4.87694 -7.872711,12.52187 -12.118171,16.98879 -8.442399,8.88282 -29.419727,20.59325 -38.108941,21.27401 -2.998787,0.23492 -8.706182,0.9498 -12.683064,1.58862 -6.721391,1.07965 -15.245575,-0.61987 -24.875925,-4.95973 -3.62502,-1.63365 -4.2575,-0.49614 -6.73524,12.11304 -1.5254,7.76234 -5.96826,19.39424 -10.04733,26.3046 -7.08594,12.00442 -7.93853,12.73301 -27.50069,23.49967 -22.75893,12.52611 -33.51616,15.53264 -50.66089,14.15908 l -11.8631,-0.95042 0.1389,6.39628 c 0.45225,20.82577 -0.675,30.53076 -5.23118,45.03765 -2.8008,8.91778 -5.75449,17.00085 -6.56375,17.96237 -0.80926,0.96152 -1.98765,3.93952 -2.61865,6.61773 -0.63101,2.67821 -4.19188,10.09215 -7.91305,16.47541 -3.72118,6.38323 -6.7496,12.51826 -6.72985,13.63338 0.0197,1.11511 -2.57049,4.6082 -5.75608,7.76239 -3.18559,3.15421 -5.77772,6.54044 -5.76029,7.52496 0.0174,0.98454 4.70638,2.81379 10.41985,4.06503 20.19862,4.42348 80.09655,31.37126 90.95686,40.92106 4.86646,4.27922 9.30213,7.46729 9.857,7.0846 0.5549,-0.38269 2.25867,-3.42097 3.78617,-6.75173 12.35936,-26.95005 12.34247,-26.92915 29.79313,-36.89371 16.10168,-9.19428 26.427395,-12.35604 39.144307,-11.98609 3.275737,0.0953 11.751608,0.32002 18.835237,0.49938 7.083625,0.17937 18.759332,1.5004 25.945942,2.93565 7.186619,1.43527 13.381564,2.55522 13.766549,2.48882 0.384985,-0.0664 2.644208,-4.2812 5.0204,-9.36617 z"
         style="fill:#00ff00"
         inkscape:connector-curvature="0" />
      <path
         id="path3024"
         d="m -232.1536,615.07695 c -7.94507,-5.37174 -9.64097,-7.54884 -13.09984,-16.8168 -5.01885,-13.44791 -5.0969,-25.57793 -0.24832,-38.58533 3.92311,-10.52451 6.89821,-14.5367 14.95133,-20.1631 10.96299,-7.65944 26.13251,-2.77301 37.79947,12.17602 7.19543,9.21959 7.75917,10.63811 8.67285,21.82286 0.96974,11.87097 0.44086,14.67014 -5.54546,29.35108 -2.84139,6.96823 -12.06972,14.0614 -21.16032,16.26444 -11.69796,2.83489 -10.98917,2.9692 -21.36971,-4.04917 z"
         style="fill:#ff0000"
         inkscape:connector-curvature="0" />
      <path
         id="path3020"
         d="m -164.21334,543.60845 c 10.11891,-3.34873 22.15462,-16.95062 22.57085,-25.50793 1.00301,-20.62137 -0.46423,-27.76801 -7.61989,-37.11511 -11.75412,-15.35384 -30.84428,-18.75998 -41.69257,-7.43891 -8.3436,8.70723 -11.94792,19.01065 -11.94792,34.15485 0,17.73852 4.47193,27.25611 16.55408,35.23194 6.26333,4.13463 11.22468,4.28596 22.13545,0.67516 z"
         style="fill:#ff0000"
         inkscape:connector-curvature="0" />
      <path
         id="path3056"
         d="m -249.478,538.21528 c 10.11889,-3.34873 22.15459,-16.95062 22.57089,-25.50793 1.003,-20.62137 -0.4643,-27.76801 -7.6199,-37.11511 -11.75415,-15.35384 -30.84431,-18.75998 -41.6926,-7.43891 -8.3436,8.70723 -11.94792,19.01065 -11.94792,34.15485 0,17.73852 4.47193,27.25611 16.55408,35.23194 6.26333,4.13463 11.22468,4.28596 22.13545,0.67516 z"
         style="fill:#ff0000"
         inkscape:connector-curvature="0" />
    </g>
    <text
       xml:space="preserve"
       style="font-size:72px;font-style:italic;font-variant:normal;font-weight:bold;font-stretch:normal;line-height:125%;letter-spacing:0px;word-spacing:0px;fill:#ff0000;fill-opacity:1;stroke:none;font-family:URW Chancery L;-inkscape-font-specification:URW Chancery L Bold Italic;text-anchor:middle;text-align:center"
       x="708.55927"
       y="364.49362"
       id="text3090"
       sodipodi:linespacing="125%"
       transform="scale(0.86820373,1.1518034)"><tspan
         sodipodi:role="line"
         id="tspan3092"
         x="412.81305"
         y="364.49362">Feliz natal</tspan><tspan
         sodipodi:role="line"
         x="412.81305"
         y="454.49362"
         id="tspan3032">e um próspero ano novo</tspan></text>
  </g>
</svg>
